<?xml version="1.0" standalone="no"?>
<!DOCTYPE svg PUBLIC "-//W3C//DTD SVG 20010904//EN"
 "http://www.w3.org/TR/2001/REC-SVG-20010904/DTD/svg10.dtd">
<svg version="1.0" xmlns="http://www.w3.org/2000/svg"
 width="527.000000pt" height="527.000000pt" viewBox="0 0 527.000000 527.000000"
 preserveAspectRatio="xMidYMid meet">
<metadata>
Created by potrace 1.14, written by Peter Selinger 2001-2017
</metadata>
<g transform="translate(0.000000,527.000000) scale(0.100000,-0.100000)"
fill="#000000" stroke="none">
<path d="M1807 5256 c-14 -14 -15 -123 -17 -1113 l0 -271 -42 -25 c-24 -14
-59 -34 -78 -45 -19 -11 -64 -36 -100 -57 -36 -20 -90 -51 -120 -67 -30 -17
-185 -105 -345 -196 -159 -91 -315 -179 -346 -196 -235 -130 -300 -172 -306
-195 -5 -19 -1 -29 17 -40 19 -13 357 -207 520 -299 25 -14 158 -89 295 -167
138 -79 270 -154 295 -168 25 -14 86 -48 135 -77 50 -29 99 -52 110 -52 11 0
133 64 270 142 317 181 658 374 895 508 102 57 193 111 203 120 16 14 17 45
17 388 l0 374 -22 14 c-13 8 -133 76 -268 151 -252 140 -281 150 -293 104 -8
-29 0 -44 31 -60 15 -8 105 -58 202 -113 96 -54 192 -107 213 -118 20 -11 40
-25 44 -31 8 -12 7 -586 0 -594 -3 -2 -49 21 -102 51 -53 31 -98 56 -100 56
-2 0 -33 18 -69 40 -36 22 -68 40 -71 40 -3 0 -22 11 -43 23 -32 21 -83 50
-185 106 -16 9 -36 21 -45 26 -20 12 -218 125 -437 248 -88 50 -166 96 -174
103 -15 14 -15 -8 -11 831 1 249 5 451 8 449 4 -2 72 -41 152 -86 80 -46 165
-94 190 -108 25 -14 106 -60 180 -102 186 -106 229 -131 270 -153 19 -10 53
-29 75 -43 22 -13 61 -35 87 -49 26 -14 86 -48 132 -75 152 -90 197 -110 217
-99 12 6 19 21 19 38 0 30 4 27 -150 114 -19 11 -80 45 -135 77 -55 31 -120
68 -145 82 -25 14 -209 118 -410 233 -582 332 -535 308 -563 281z"/>
<path d="M3140 2789 c-146 -83 -283 -161 -305 -173 -22 -13 -107 -61 -190
-108 -82 -47 -166 -95 -185 -105 -153 -86 -352 -200 -382 -220 l-38 -23 0
-683 c0 -375 4 -687 8 -693 6 -9 272 -165 472 -276 25 -14 146 -83 270 -153
124 -71 245 -139 270 -153 25 -14 59 -33 75 -43 270 -155 287 -163 313 -137 9
9 12 173 12 675 l0 662 33 17 c28 15 242 136 862 489 99 57 203 115 230 130
139 77 204 117 208 129 11 28 -5 53 -46 74 -43 22 -102 55 -217 122 -36 21
-87 50 -115 66 -27 15 -124 69 -214 121 -89 51 -165 93 -168 93 -3 0 -17 8
-31 18 -15 11 -56 35 -92 54 -55 30 -116 65 -255 146 -133 77 -219 122 -233
122 -9 0 -136 -68 -282 -151z m-855 -816 c77 -44 226 -129 330 -188 105 -59
210 -119 234 -133 25 -14 67 -38 93 -53 27 -16 51 -29 53 -29 2 0 36 -19 77
-43 40 -24 96 -56 123 -71 28 -15 78 -44 113 -64 l62 -36 0 -613 c0 -337 -3
-613 -6 -613 -3 0 -18 8 -32 18 -15 10 -74 45 -132 77 -58 32 -158 89 -223
127 -65 37 -120 68 -122 68 -3 0 -34 18 -70 40 -36 22 -67 40 -69 40 -3 0 -37
19 -78 43 -40 24 -95 56 -123 71 -27 16 -125 71 -217 123 -161 91 -168 96
-168 126 -1 41 -1 1156 0 1180 0 10 3 16 8 14 4 -2 70 -40 147 -84z"/>
</g>
</svg>
