<svg xmlns="http://www.w3.org/2000/svg" width="212.933" height="147.497" viewBox="0 0 212.933 147.497">
  <g id="Group_114" data-name="Group 114" transform="translate(-579.874 -169.503)">
    <g id="Icon_ionic-ios-images" data-name="Icon ionic-ios-images" transform="translate(611.724 176.751)">
      <path id="Path_25396" data-name="Path 25396" d="M42.394,14.567a1.461,1.461,0,0,0-2.372-.216L11.709,52a1.441,1.441,0,0,0,.986,2.372l49.633,4.313A1.466,1.466,0,0,0,63.714,56.5Z" transform="translate(30.809 39.2)" fill="#331846"/>
      <path id="Path_25397" data-name="Path 25397" d="M33.816,19.13a1.461,1.461,0,0,0-2.372-.216L23.8,26.648a1.442,1.442,0,0,0-.154,1.664l7.825,15.25a1.435,1.435,0,0,0,1.14.709l13.833,1.2a1.466,1.466,0,0,0,1.386-2.187Z" transform="translate(71.707 54.632)" fill="#331846"/>
      <path id="Path_25398" data-name="Path 25398" d="M32.321,27.025a7.287,7.287,0,1,0-7.3-8.657A7.343,7.343,0,0,0,32.321,27.025Z" transform="translate(76.559 34.506)" fill="#331846"/>
      <path id="Path_25399" data-name="Path 25399" d="M132.634,32.232l-20.272-1.756L110.483,9.834a8.322,8.322,0,0,0-9.089-7.548L9.861,10.542A8.357,8.357,0,0,0,2.282,19.6l8.257,91.348a8.322,8.322,0,0,0,9.089,7.548l4.837-.431L24,123.211a8.331,8.331,0,0,0,7.61,9.027l91.595,7.98a8.357,8.357,0,0,0,9.058-7.579l8.01-91.379A8.394,8.394,0,0,0,132.634,32.232ZM19.381,85.038a2.121,2.121,0,0,1-2.28-1.879L11.555,21.541a2.074,2.074,0,0,1,1.879-2.249l86.018-7.733a2.121,2.121,0,0,1,2.28,1.879l1.479,16.267L41.07,24.252a8.357,8.357,0,0,0-9.058,7.579L27.422,84.3Zm111.59-41.777-5.392,61.618a2.1,2.1,0,0,1-2.249,1.91l-5.73-.493L37.281,99.3a2.1,2.1,0,0,1-1.91-2.249l1.171-13.525,4.221-48.093a2.1,2.1,0,0,1,2.249-1.91l61,5.33,9.15.8,15.9,1.386A2.012,2.012,0,0,1,130.971,43.261Z" transform="translate(0 0)" fill="#331846"/>
    </g>
    <path id="Icon_weather-stars" data-name="Icon weather-stars" d="M6.444,30.379a4.989,4.989,0,0,0,3.494-1.588,4.976,4.976,0,0,0,1.44-3.557,5.138,5.138,0,0,0,4.912,5.145,5.138,5.138,0,0,0-4.912,5.145,4.89,4.89,0,0,0-1.44-3.557A4.989,4.989,0,0,0,6.444,30.379Zm4.933-15.245a9.731,9.731,0,0,0,6.8-3.113,9.692,9.692,0,0,0,2.795-6.945,9.692,9.692,0,0,0,2.795,6.945,9.827,9.827,0,0,0,6.818,3.113,9.814,9.814,0,0,0-4.849,1.5A10.175,10.175,0,0,0,22.24,20.3a9.957,9.957,0,0,0-1.27,4.933,9.741,9.741,0,0,0-2.795-6.966A9.667,9.667,0,0,0,11.377,15.134Zm7.03,22.8a7.563,7.563,0,0,0,7.22-7.559,7.565,7.565,0,0,0,7.2,7.559,7.565,7.565,0,0,0-7.2,7.559,7.292,7.292,0,0,0-2.1-5.23A7.417,7.417,0,0,0,18.407,37.938ZM32.826,27.9A7.527,7.527,0,0,0,40,20.321a7.563,7.563,0,0,0,7.22,7.559A7.563,7.563,0,0,0,40,35.439,7.489,7.489,0,0,0,32.826,27.9Z" transform="translate(745.583 164.427)" fill="#331846"/>
    <path id="Icon_weather-stars-2" data-name="Icon weather-stars" d="M6.444,33.01A5.508,5.508,0,0,0,10.3,31.257a5.493,5.493,0,0,0,1.59-3.927,5.672,5.672,0,0,0,5.423,5.68,5.672,5.672,0,0,0-5.423,5.68,5.4,5.4,0,0,0-1.59-3.927A5.508,5.508,0,0,0,6.444,33.01ZM11.891,16.18a10.743,10.743,0,0,0,7.5-3.436A10.7,10.7,0,0,0,22.48,5.076a10.7,10.7,0,0,0,3.086,7.667,10.849,10.849,0,0,0,7.527,3.436,10.834,10.834,0,0,0-5.353,1.66,11.233,11.233,0,0,0-3.857,4.044,10.992,10.992,0,0,0-1.4,5.447,10.754,10.754,0,0,0-3.086-7.691A10.673,10.673,0,0,0,11.891,16.18Zm7.761,25.176a8.35,8.35,0,0,0,7.971-8.345,8.352,8.352,0,0,0,7.948,8.345A8.352,8.352,0,0,0,27.623,49.7a8.05,8.05,0,0,0-2.314-5.774A8.189,8.189,0,0,0,19.651,41.355Z" transform="translate(573.43 267.299)" fill="#331846"/>
  </g>
</svg>
