<svg xmlns="http://www.w3.org/2000/svg" width="138.053" height="138.001" viewBox="0 0 138.053 138.001">
  <g id="Group_115" data-name="Group 115" transform="translate(-896.992 -483.001)">
    <path id="Path_25396" data-name="Path 25396" d="M42.394,14.567a1.461,1.461,0,0,0-2.372-.216L11.709,52a1.441,1.441,0,0,0,.986,2.372l49.633,4.313A1.466,1.466,0,0,0,63.714,56.5Z" transform="translate(925.552 519.952)" fill="#1c0d26"/>
    <path id="Path_25397" data-name="Path 25397" d="M33.816,19.13a1.461,1.461,0,0,0-2.372-.216L23.8,26.648a1.442,1.442,0,0,0-.154,1.664l7.825,15.25a1.435,1.435,0,0,0,1.14.709l13.833,1.2a1.466,1.466,0,0,0,1.386-2.187Z" transform="translate(966.449 535.384)" fill="#1c0d26"/>
    <path id="Path_25398" data-name="Path 25398" d="M32.321,27.025a7.287,7.287,0,1,0-7.3-8.657A7.343,7.343,0,0,0,32.321,27.025Z" transform="translate(971.301 515.258)" fill="#1c0d26"/>
    <path id="Path_25399" data-name="Path 25399" d="M132.634,32.232l-20.272-1.756L110.483,9.834a8.322,8.322,0,0,0-9.089-7.548L9.861,10.542A8.357,8.357,0,0,0,2.282,19.6l8.257,91.348a8.322,8.322,0,0,0,9.089,7.548l4.837-.431L24,123.211a8.331,8.331,0,0,0,7.61,9.027l91.595,7.98a8.357,8.357,0,0,0,9.058-7.579l8.01-91.379A8.394,8.394,0,0,0,132.634,32.232ZM19.381,85.038a2.121,2.121,0,0,1-2.28-1.879L11.555,21.541a2.074,2.074,0,0,1,1.879-2.249l86.018-7.733a2.121,2.121,0,0,1,2.28,1.879l1.479,16.267L41.07,24.252a8.357,8.357,0,0,0-9.058,7.579L27.422,84.3Zm111.59-41.777-5.392,61.618a2.1,2.1,0,0,1-2.249,1.91l-5.73-.493L37.281,99.3a2.1,2.1,0,0,1-1.91-2.249l1.171-13.525,4.221-48.093a2.1,2.1,0,0,1,2.249-1.91l61,5.33,9.15.8,15.9,1.386A2.012,2.012,0,0,1,130.971,43.261Z" transform="translate(894.742 480.752)" fill="#1c0d26"/>
  </g>
</svg>
